PathFileType	4	(X/Y/Z)	D:\Share\Shared_Data\Ergonomics\Sit To Stand Pertubation\S2\Unperturbed.trc
DataRate	CameraRate	NumFrames	NumMarkers	Units	OrigDataRate	OrigDataStartFrame	OrigNumFrames	
100	100	18	18	m	100	3431	241
Frame#	Time	R_Toe			R_ASIS			R_Pelvis			V_Sacral			L_Pelvis			L_ASIS			Clavical			R_Acromium			L_Acromium			Sternum			Torso			R_Thigh_Med			R_Thigh_Lat			R_Thigh			R_Shank_Med			R_Shank_Lat			R_Shank			R_Heel			
		X1	Y1	Z1	X2	Y2	Z2	X3	Y3	Z3	X4	Y4	Z4	X5	Y5	Z5	X6	Y6	Z6	X7	Y7	Z7	X8	Y8	Z8	X9	Y9	Z9	X10	Y10	Z10	X11	Y11	Z11	X12	Y12	Z12	X13	Y13	Z13	X14	Y14	Z14	X15	Y15	Z15	X16	Y16	Z16	X17	Y17	Z17	X18	Y18	Z18	

3431	34.3	0.44250174	0.064211754	0.14735371	0.4338071	1.0299392	0.15571877	0.35528766	1.0324524	0.19353308	0.22222818	1.0413422	0.025161623	0.32863571	1.043397	-0.14865881	0.4241059	1.0454559	-0.11906885	0.4648363	1.4541907	0.024849342	0.36789346	1.4773904	0.23001549	0.36012015	1.4973723	-0.15934633	0.50327902	1.2941465	0.017072603	0.4708237	1.4176992	-0.092359612	0.37563287	0.49343137	0.098148605	0.36210748	0.51788196	0.18763205	0.44935092	0.6832746	0.17054233	0.30773395	0.10757684	0.10924289	0.28519733	0.10154054	0.20037724	0.32302078	0.37372031	0.21770068	0.20491858	0.061777668	0.15208444
3432	34.31	0.44250131	0.064208519	0.14732881	0.43549619	1.0299871	0.1555914	0.35699884	1.0322375	0.19360768	0.22375719	1.0404293	0.025328201	0.32984094	1.0429171	-0.14871773	0.42535184	1.045448	-0.11923405	0.46367599	1.4545005	0.02465485	0.36644583	1.4771095	0.22983015	0.3585694	1.4971959	-0.15948152	0.50307059	1.2946694	0.016780804	0.46979398	1.4180488	-0.092595856	0.37463809	0.49347607	0.097748337	0.36137531	0.51798248	0.18719121	0.44980978	0.68291748	0.16975888	0.30773395	0.10754487	0.10917261	0.28516196	0.10155685	0.2002812	0.32230508	0.37382141	0.2175143	0.20491852	0.061771332	0.15205804
3433	34.32	0.44250153	0.064205505	0.14730081	0.43717535	1.0300055	0.15544908	0.35873087	1.032011	0.19366716	0.22527675	1.0394893	0.025510393	0.33101517	1.0424363	-0.14878622	0.42656256	1.0454182	-0.11939944	0.46251801	1.4547601	0.024440075	0.36501968	1.4767926	0.22962755	0.3570072	1.4969569	-0.15962624	0.50284308	1.2951433	0.016472746	0.46875714	1.4183425	-0.092852242	0.37360733	0.49353488	0.097368706	0.36059625	0.51809515	0.18676733	0.45019467	0.68255536	0.16899802	0.30773569	0.10751087	0.10909493	0.28512619	0.10157559	0.20017584	0.3215647	0.37392883	0.217336	0.20492209	0.061765678	0.15202713
3434	34.33	0.44250223	0.064202789	0.14727129	0.43884531	1.029994	0.1552919	0.36048395	1.0317709	0.1937113	0.2267888	1.0385208	0.025699947	0.33216418	1.0419496	-0.14886142	0.4277428	1.0453651	-0.11956568	0.4613649	1.4549701	0.024205366	0.36361816	1.4764424	0.22941052	0.35543506	1.496657	-0.15977673	0.50260132	1.2955684	0.016148615	0.46771844	1.4185815	-0.093125893	0.37252405	0.49360443	0.097013046	0.35975931	0.51821588	0.18636258	0.45049585	0.68218512	0.16827019	0.30773734	0.10747522	0.10901247	0.28508905	0.10159573	0.2000643	0.32078851	0.37404248	0.21716937	0.20492892	0.061759094	0.15199228
3435	34.34	0.44250299	0.064200653	0.1472422	0.44050363	1.0299515	0.1551203	0.36224551	1.0315123	0.19374069	0.22829364	1.0375223	0.025887449	0.33329291	1.0414502	-0.14894023	0.42889709	1.0452853	-0.11973423	0.46021951	1.4551305	0.023951904	0.36224539	1.4760615	0.22918225	0.35385632	1.4962969	-0.15993144	0.50234961	1.2959432	0.015810203	0.46668253	1.4187656	-0.093413574	0.3713703	0.49367978	0.096684982	0.35885529	0.51833978	0.18598003	0.45070648	0.68180219	0.16758443	0.30773697	0.10743832	0.10892892	0.28504895	0.10161544	0.19995097	0.31996686	0.37416208	0.2170183	0.20493779	0.061750137	0.15195442
3436	34.35	0.44250333	0.064199455	0.14721579	0.442146	1.0298749	0.15493536	0.36399948	1.0312313	0.19375534	0.22979085	1.0364915	0.026063641	0.33440497	1.0409293	-0.14902162	0.4300289	1.0451743	-0.11990707	0.45908459	1.4552407	0.023681599	0.36090524	1.4756521	0.2289463	0.35227643	1.4958776	-0.16009033	0.50209076	1.296267	0.015460475	0.46565268	1.4188943	-0.093712311	0.37012958	0.49375558	0.096388214	0.3578779	0.51846136	0.18562404	0.4508219	0.68140186	0.1669482	0.30773254	0.10740048	0.10884856	0.28500375	0.10163251	0.19984077	0.31909241	0.37428772	0.21688661	0.20494685	0.061738041	0.15191508
3437	34.36	0.44250232	0.06419957	0.14719432	0.44376688	1.0297605	0.15473851	0.36573389	1.0309242	0.19375496	0.23128003	1.0354274	0.026220953	0.33550275	1.040382	-0.14910704	0.43114035	1.0450287	-0.12008605	0.45796283	1.4553002	0.023396385	0.35960059	1.4752152	0.22870612	0.35070169	1.495401	-0.16025319	0.50182605	1.2965376	0.01510283	0.46463107	1.4189661	-0.094019264	0.36879019	0.4938259	0.09612558	0.35682501	0.51857605	0.18530019	0.4508389	0.6809798	0.16636691	0.3077222	0.10736182	0.10877549	0.28495093	0.10164477	0.19973819	0.31815964	0.37441913	0.21677763	0.20495421	0.061722652	0.15187619
3438	34.37	0.44249878	0.064201187	0.14718004	0.44536023	1.0296044	0.15453174	0.36744305	1.0305903	0.1937402	0.23276073	1.0343319	0.026355185	0.33658716	1.0398075	-0.1491994	0.43223236	1.0448452	-0.12027232	0.4568577	1.4553092	0.023097591	0.35833304	1.4747507	0.22846387	0.34913892	1.4948707	-0.16041852	0.50155569	1.2967545	0.014740743	0.46361963	1.4189801	-0.094331741	0.36735046	0.49388544	0.095898468	0.35569879	0.51867914	0.18501443	0.45075598	0.68053333	0.16584375	0.30770486	0.10732253	0.10871303	0.28488821	0.10165062	0.1996468	0.31716568	0.3745549	0.21669374	0.20495844	0.061703995	0.1518398
3439	34.38	0.44249213	0.064204315	0.14717447	0.44692017	1.0294047	0.15431755	0.36912744	1.0302303	0.19371358	0.2342317	1.0332114	0.026466848	0.33765771	1.0392101	-0.14930208	0.43330472	1.0446229	-0.12046575	0.4557735	1.4552682	0.022785822	0.3571033	1.4742579	0.22821994	0.34759476	1.4942908	-0.16058377	0.5012793	1.2969174	0.014377889	0.4626207	1.4189373	-0.094647346	0.36582404	0.49393073	0.095706413	0.35450644	0.51876654	0.18477203	0.45057462	0.68006226	0.1653795	0.30768143	0.10728343	0.10866356	0.28481369	0.1016492	0.19956889	0.31611154	0.37469312	0.21663644	0.20495883	0.061682125	0.15180714
3440	34.39	0.44248227	0.064208778	0.14717836	0.44844064	1.0291614	0.154099	0.37079294	1.0298478	0.1936786	0.23568919	1.0320757	0.026560371	0.33871198	1.0385972	-0.14941824	0.43435699	1.0443623	-0.12066488	0.45471533	1.4551794	0.022462145	0.35591153	1.473736	0.22797456	0.34607553	1.4936656	-0.16074614	0.50099725	1.297028	0.014018068	0.46163748	1.418839	-0.094963982	0.36423981	0.49396152	0.095547165	0.35326047	0.51883514	0.18457652	0.45029993	0.67956848	0.16497305	0.30765491	0.10724593	0.1086283	0.28472665	0.10164061	0.19950562	0.31500421	0.3748316	0.21660634	0.20495518	0.061657089	0.15177847
3441	34.4	0.44246957	0.064214233	0.14719186	0.4499158	1.0288772	0.15387897	0.37244708	1.0294462	0.19363831	0.23712454	1.0309371	0.026639936	0.33974612	1.0379777	-0.14955011	0.43538837	1.0440659	-0.12086759	0.45368851	1.4550463	0.022130371	0.35475848	1.4731846	0.22772954	0.34458722	1.4929998	-0.16090308	0.50071161	1.2970901	0.01366477	0.46067365	1.4186885	-0.09527948	0.36263458	0.49397983	0.095417389	0.35197922	0.51888422	0.18442952	0.44994229	0.67905664	0.16462209	0.30762982	0.10721166	0.10860732	0.28462759	0.10162562	0.19945724	0.31385715	0.37496783	0.21660236	0.20494794	0.061628819	0.15175328
3442	34.41	0.4424545	0.064220161	0.14721461	0.45133975	1.0285575	0.15365994	0.37409149	1.0290299	0.19359439	0.23852405	1.0298099	0.026704912	0.34075485	1.0373604	-0.14969794	0.43639719	1.0437375	-0.12107212	0.45269724	1.4548727	0.021798384	0.35364548	1.4726066	0.22748788	0.34313614	1.4922981	-0.16105238	0.50042648	1.2971084	0.013321005	0.45973352	1.4184906	-0.095591385	0.36104584	0.49398807	0.095313301	0.35068753	0.51891516	0.18433035	0.4495192	0.67853418	0.16432294	0.30761108	0.10718194	0.10859967	0.28451874	0.10160553	0.19942342	0.31269067	0.37509903	0.21662123	0.20493793	0.061597134	0.15173073
3443	34.42	0.44243753	0.06422599	0.1472458	0.45270596	1.0282101	0.15344397	0.37571228	1.0286044	0.19354692	0.23987108	1.02871	0.026749674	0.3417319	1.0367526	-0.14985941	0.43738046	1.043382	-0.12127692	0.45174503	1.454663	0.021476084	0.35257422	1.472005	0.22725171	0.34172888	1.4915675	-0.1611926	0.50014578	1.2970887	0.012989804	0.45882098	1.4182515	-0.09589711	0.35950986	0.49398767	0.0952313	0.34941678	0.51893024	0.18427571	0.44905789	0.67801154	0.16406984	0.30760229	0.10715708	0.10860336	0.28440369	0.10158179	0.19940302	0.31153113	0.37522202	0.21665805	0.20492633	0.061561928	0.15171025
3444	34.43	0.44241931	0.064231239	0.14728387	0.45400674	1.0278447	0.15323265	0.37727631	1.0281758	0.19349449	0.24114954	1.0276548	0.026767847	0.34267001	1.0361614	-0.15002997	0.43833325	1.0430051	-0.12148035	0.45083487	1.4544224	0.021171394	0.35154654	1.4713856	0.22702199	0.34037161	1.4908168	-0.16132382	0.49987204	1.2970367	0.012674581	0.45794009	1.4179779	-0.096194511	0.35806293	0.49397971	0.09516851	0.34820358	0.5189317	0.18425938	0.44859583	0.67750201	0.16385484	0.30760388	0.10713593	0.10861543	0.28428662	0.10155563	0.19939394	0.31040994	0.37533359	0.21670729	0.20491434	0.061523384	0.15169135
3445	34.44	0.4424007	0.064235558	0.14732648	0.45523349	1.0274739	0.15302693	0.37874216	1.0277531	0.19343515	0.24234547	1.0266641	0.02675631	0.3435611	1.0355922	-0.15020471	0.43924841	1.042613	-0.12168094	0.44996957	1.4541582	0.020888292	0.35056381	1.470756	0.22679897	0.33906976	1.4900579	-0.16144803	0.49960516	1.2969594	0.01237832	0.45709479	1.4176788	-0.096482315	0.35674222	0.4939653	0.095122574	0.34708737	0.51892102	0.18427237	0.44817749	0.67702112	0.16366841	0.30761234	0.1071158	0.1086321	0.28417221	0.10152792	0.19939313	0.30936279	0.37543036	0.21676297	0.20490292	0.061482311	0.15167378
3446	34.45	0.44238235	0.064238632	0.14737064	0.45637701	1.0271116	0.15282773	0.38007669	1.0273474	0.19336681	0.24344751	1.0257595	0.026715401	0.34439633	1.0350507	-0.15037976	0.44011694	1.0422129	-0.12187777	0.44915207	1.45388	0.020627537	0.34962732	1.4701257	0.22658244	0.3378288	1.4893038	-0.16156805	0.49934329	1.2968633	0.01210244	0.45628934	1.417364	-0.096759544	0.3555834	0.49394571	0.095091011	0.34610745	0.51889954	0.18430402	0.44784927	0.67658374	0.16349998	0.30762195	0.10709335	0.10864891	0.2840654	0.10149946	0.19939679	0.30842764	0.37550934	0.21681898	0.20489276	0.061440285	0.15165759
3447	34.46	0.44236563	0.064240204	0.14741322	0.45742715	1.0267709	0.1526358	0.38126266	1.0269731	0.19328714	0.24444667	1.0249629	0.026646292	0.34516632	1.0345421	-0.15055391	0.44092877	1.0418129	-0.12207082	0.44838568	1.4535992	0.020387606	0.34873773	1.469506	0.2263718	0.33665411	1.4885693	-0.16168585	0.49908344	1.2967559	0.011846683	0.45552826	1.4170455	-0.097024872	0.35461639	0.49392197	0.095070625	0.34529877	0.51886847	0.18434303	0.44765247	0.67620294	0.16333789	0.30762897	0.10706626	0.10866109	0.28397141	0.10147131	0.19940132	0.3076409	0.37556876	0.21686998	0.20488441	0.061399799	0.15164334
3448	34.47	0.44235168	0.064240028	0.14745114	0.45837152	1.0264637	0.1524512	0.38229666	1.0266429	0.19319302	0.24533675	1.0242917	0.026549097	0.34586026	1.0340723	-0.15072955	0.44167392	1.0414233	-0.12226102	0.44767453	1.4533278	0.020165014	0.34789566	1.4689099	0.22616556	0.33555127	1.4878701	-0.16180193	0.49882336	1.2966447	0.011609665	0.45481564	1.4167368	-0.097276588	0.35386246	0.49389505	0.095057167	0.34468826	0.51882977	0.18437863	0.44761438	0.67588763	0.16316971	0.30763339	0.10703404	0.10866398	0.28389554	0.10144477	0.19940385	0.30703333	0.37560831	0.21691211	0.20487846	0.061364128	0.15163153
